<?xml version="1.0" encoding="UTF-8"?>
<svg version="1.1" xmlns="http://www.w3.org/2000/svg" width="500" height="500">
<path d="M0 0 C165 0 330 0 500 0 C500 165 500 330 500 500 C335 500 170 500 0 500 C0 335 0 170 0 0 Z " fill="#050A30" transform="translate(0,0)"/>
<path d="M0 0 C0.72058594 0.34579102 1.44117188 0.69158203 2.18359375 1.04785156 C15.98263212 7.76292815 29.07392778 16.44893659 40.875 26.2421875 C44.15448418 28.9549961 47.57536914 31.47457389 51 34 C51.78375 33.01 52.5675 32.02 53.375 31 C54.24125 30.01 55.1075 29.02 56 28 C56.66 28 57.32 28 58 28 C58.6331684 37.01134307 59.1723784 45.95971078 59 55 C50.62504986 54.61387352 42.99730769 53.54824033 35 51 C36.32 49.35 37.64 47.7 39 46 C36.39287154 38.39587531 30.96427316 34.02254582 25 29 C24.23042969 28.319375 23.46085937 27.63875 22.66796875 26.9375 C7.29506226 13.71349442 -10.83740719 4.61540359 -29.9375 -1.875 C-30.8138208 -2.17374023 -31.6901416 -2.47248047 -32.59301758 -2.78027344 C-45.42594834 -6.97671402 -62.07379455 -8.95540799 -74.51953125 -2.7421875 C-79.86100135 0.3169453 -84.46126101 3.85593397 -89 8 C-86.36369243 -0.02354478 -79.27527659 -6.1416386 -71.9375 -10 C-47.97379783 -20.49803052 -21.98727097 -10.65060729 0 0 Z " fill="#C4E2F9" transform="translate(263,145)"/>
<path d="M0 0 C6.95660771 0.57021375 13.31427305 2.01302694 20 4 C19.2265625 4.86625 19.2265625 4.86625 18.4375 5.75 C16.82025195 7.81911155 16.82025195 7.81911155 17.046875 9.87890625 C23.23251114 23.64448176 37.75296306 35.74441463 49.3359375 44.890625 C51.11981032 46.30307562 52.87545219 47.75188987 54.6015625 49.234375 C69.28872327 61.79861283 89.45610399 74.59656493 109.3125 74.265625 C113.29261507 73.87224153 116.35386453 72.62773905 120 71 C120.99 70.67 121.98 70.34 123 70 C121.56417426 73.65979495 119.96050994 74.90668563 116.5 76.6875 C115.7059375 77.10386719 114.911875 77.52023437 114.09375 77.94921875 C106.39673414 81.81208679 97.39882801 80.42572534 89.2734375 78.17578125 C64.83118542 69.39640431 44.28715084 52.37311952 25.34375 35.12109375 C23.00653321 33.00591255 20.63007271 30.94169647 18.25 28.875 C14.44574337 25.50995595 11.20099726 21.93968894 8 18 C5.50638429 19.20381448 3.31856917 20.45428722 1 22 C0.02700844 17.14270355 -0.12038805 12.5499375 -0.0625 7.625 C-0.05798828 6.88894531 -0.05347656 6.15289062 -0.04882812 5.39453125 C-0.03715142 3.59631842 -0.01922011 1.79814803 0 0 Z " fill="#213BF7" transform="translate(201,197)"/>
<path d="M0 0 C4.40958108 0.66607439 8.26572186 2.26624729 12.3125 4.0625 C13.28026367 4.48499023 13.28026367 4.48499023 14.26757812 4.91601562 C15.84698358 5.6062743 17.42376493 6.30253198 19 7 C17.68 8.32 16.36 9.64 15 11 C23.56077474 39.68300815 51.95255581 70.31710996 77 86 C85.40558211 90.49693657 93.686584 93.91868154 103.29296875 91.3984375 C106.62719213 90.15983294 109.87210576 88.69427604 113 87 C109.21204665 92.68193002 104.29694748 94.90101751 98 97 C84.17860027 98.68553655 72.68249951 92.12623388 62 84 C50.35328157 74.74388873 39.48741613 64.47360284 30 53 C29.58169922 52.49549316 29.16339844 51.99098633 28.73242188 51.47119141 C22.64573246 44.0956307 16.84412067 36.55143208 11.3125 28.75 C10.79534424 28.02304932 10.27818848 27.29609863 9.74536133 26.54711914 C9.2686499 25.86641357 8.79193848 25.18570801 8.30078125 24.484375 C7.87966064 23.88334961 7.45854004 23.28232422 7.0246582 22.66308594 C6 21 6 21 5 18 C4.21625 18.495 3.4325 18.99 2.625 19.5 C0 21 0 21 -2 21 C-1.49656013 13.97326485 -0.95812032 6.98059091 0 0 Z " fill="#213BF7" transform="translate(214,169)"/>
<path d="M0 0 C1.58941406 -0.00773438 1.58941406 -0.00773438 3.2109375 -0.015625 C29.06878933 1.99619871 54.19017646 23.10498515 72.2890625 40.0625 C74.33623547 41.97958506 76.42508663 43.81037967 78.5625 45.625 C81.05898122 47.76484105 83.3766745 50.00602553 85.64453125 52.3828125 C86.17763916 52.93662598 86.71074707 53.49043945 87.26000977 54.06103516 C88.3226467 55.17234616 89.37433233 56.29425085 90.41381836 57.42724609 C92.02800628 59.16939149 92.02800628 59.16939149 94.625 61.25 C98.2580379 61.30382278 99.58186954 59.53234784 102.625 57.25 C102.625 64.84 102.625 72.43 102.625 80.25 C96.025 78.93 89.425 77.61 82.625 76.25 C83.615 74.93 84.605 73.61 85.625 72.25 C86.285 72.25 86.945 72.25 87.625 72.25 C85.01251049 67.34928783 82.17236852 63.32652198 78.3125 59.3125 C77.32727721 58.26642282 76.34290106 57.21954761 75.359375 56.171875 C74.65071289 55.42067383 74.65071289 55.42067383 73.92773438 54.65429688 C72.24508642 52.84046797 70.65364071 50.95671513 69.0625 49.0625 C54.23507302 32.06691153 34.04196466 18.56255867 13.625 9.25 C12.86058594 8.88777344 12.09617188 8.52554688 11.30859375 8.15234375 C6.45896426 6.17384216 1.63013037 5.95438903 -3.5625 5.875 C-4.24038574 5.86090088 -4.91827148 5.84680176 -5.61669922 5.83227539 C-10.29375022 5.87763348 -13.30294561 7.06617231 -17.375 9.25 C-18.035 8.92 -18.695 8.59 -19.375 8.25 C-18.34409707 7.28009724 -17.29959988 6.32463799 -16.25 5.375 C-15.66992188 4.84132812 -15.08984375 4.30765625 -14.4921875 3.7578125 C-9.98277346 0.54631099 -5.42682902 -0.02628004 0 0 Z " fill="#C4E1F8" transform="translate(199.375,142.75)"/>
<path d="M0 0 C2.64 0 5.28 0 8 0 C10.44197122 5.4412692 12.38901891 10.94091162 14.1875 16.625 C14.59645508 17.87410156 14.59645508 17.87410156 15.01367188 19.1484375 C16.29710558 23.18851954 17.39450742 26.70425253 17 31 C15.02 31 13.04 31 11 31 C10.505 28.525 10.505 28.525 10 26 C6.04 26 2.08 26 -2 26 C-2.33 27.65 -2.66 29.3 -3 31 C-4.98 31 -6.96 31 -9 31 C-7.78406638 20.1806723 -3.73161771 10.14934394 0 0 Z " fill="#E8EAF2" transform="translate(149,352)"/>
<path d="M0 0 C2.96912882 1.38980498 4.69657028 2.69657028 7 5 C7.125 7.625 7.125 7.625 7 10 C5.02 10 3.04 10 1 10 C0.67 9.01 0.34 8.02 0 7 C-2.31 6.67 -4.62 6.34 -7 6 C-7.33 7.32 -7.66 8.64 -8 10 C-7.01257813 10.47050781 -6.02515625 10.94101562 -5.0078125 11.42578125 C-3.713334 12.05425994 -2.41907447 12.68318981 -1.125 13.3125 C-0.47402344 13.62123047 0.17695313 13.92996094 0.84765625 14.24804688 C4.19676398 15.88807385 5.89005879 16.83508818 8 20 C7.92754653 23.98494076 7.57324853 26.25477692 5.125 29.4375 C0.44571186 31.77714407 -3.86919217 31.75498373 -9 31 C-12.125 29.375 -12.125 29.375 -14 27 C-14.8125 23.75 -14.8125 23.75 -15 21 C-13.02 21 -11.04 21 -9 21 C-8.67 22.32 -8.34 23.64 -8 25 C-5.03 25 -2.06 25 1 25 C0.35098975 22.52546531 0.35098975 22.52546531 -1 20 C-3.24393924 18.72226844 -3.24393924 18.72226844 -5.875 18 C-10.20919884 16.43417672 -12.77461794 15.24845666 -15 11 C-15.625 8 -15.625 8 -15 5 C-10.63261687 -0.15127241 -6.61413601 -1.14710108 0 0 Z " fill="#EBEDF4" transform="translate(193,291)"/>
<path d="M0 0 C3.5386994 1.65139305 4.81070153 2.71605229 7 6 C7.68869056 11.17318721 7.84213522 15.59644131 5.125 20.125 C1.56518332 23.26601472 -1.11821241 23.39266737 -5.73828125 23.35546875 C-9.35701199 22.78672178 -10.88030223 20.84834388 -13 18 C-14.24300105 14.27099684 -14.6711674 10.86650786 -14 7 C-10.46892959 0.86015368 -6.88035828 -0.46646497 0 0 Z " fill="#E9EBF2" transform="translate(251,299)"/>
<path d="M0 0 C2.31 0 4.62 0 7 0 C7.33 4.62 7.66 9.24 8 14 C8.680625 13.01 9.36125 12.02 10.0625 11 C11.421875 9.3359375 11.421875 9.3359375 13 8 C16.8125 7.625 16.8125 7.625 20 8 C18.89187347 10.30149357 17.82404566 12.22701252 16.25 14.2578125 C14.61858009 17.01043529 14.61858009 17.01043529 16.01953125 20.04296875 C16.61121094 21.08066406 17.20289063 22.11835938 17.8125 23.1875 C21 28.89403974 21 28.89403974 21 31 C18.69 31 16.38 31 14 31 C12.68 28.03 11.36 25.06 10 22 C9.34 22.33 8.68 22.66 8 23 C7.53476937 24.89533342 7.53476937 24.89533342 7.375 27.0625 C7.189375 29.0115625 7.189375 29.0115625 7 31 C4.69 31 2.38 31 0 31 C0 20.77 0 10.54 0 0 Z " fill="#E0E2EB" transform="translate(302,291)"/>
<path d="M0 0 C3.58552881 1.63687185 4.79315055 2.68972583 7 6 C7.22705078 7.90112305 7.22705078 7.90112305 7.1953125 10.01171875 C7.18886719 10.76904297 7.18242187 11.52636719 7.17578125 12.30664062 C7.15902344 13.09232422 7.14226562 13.87800781 7.125 14.6875 C7.11597656 15.48478516 7.10695312 16.28207031 7.09765625 17.10351562 C7.07411585 19.069139 7.03824547 21.03460775 7 23 C4.24894578 23.10812003 1.50214913 23.18734945 -1.25 23.25 C-2.41595703 23.30027344 -2.41595703 23.30027344 -3.60546875 23.3515625 C-9.39056357 23.45045301 -9.39056357 23.45045301 -12.515625 21.140625 C-14 19 -14 19 -14.5 16.5 C-14 14 -14 14 -12.625 11.6875 C-8.60769589 9.10494736 -4.64855591 9.68063356 0 10 C0 8.68 0 7.36 0 6 C-6.435 6.495 -6.435 6.495 -13 7 C-12 3 -12 3 -10.4375 1.25 C-6.98316413 -0.52145429 -3.76347898 -0.56115492 0 0 Z " fill="#E5E7EF" transform="translate(223,360)"/>
<path d="M0 0 C1.98 0 3.96 0 6 0 C6 0.66 6 1.32 6 2 C6.99 1.34 7.98 0.68 9 0 C12.57176532 -0.46588243 14.47628595 -0.27676568 17.67578125 1.4140625 C21.15417698 5.28414313 20.55313804 8.73732456 20.3125 13.75 C20.28994141 14.63816406 20.26738281 15.52632813 20.24414062 16.44140625 C20.18532552 18.62932812 20.10321268 20.81379671 20 23 C18.02 23 16.04 23 14 23 C13.67 17.72 13.34 12.44 13 7 C11.68 6.67 10.36 6.34 9 6 C6.94077598 8.05922402 7.58572421 12.21708124 7.4375 15.0625 C7.39431641 15.82111328 7.35113281 16.57972656 7.30664062 17.36132812 C7.20026367 19.24065438 7.09960066 21.12030244 7 23 C4.69 23 2.38 23 0 23 C0 15.41 0 7.82 0 0 Z " fill="#E6E8F0" transform="translate(178,360)"/>
<path d="M0 0 C1.98 0 3.96 0 6 0 C7.69939315 4.35931285 9.16775145 8.38627259 10 13 C10.20496094 12.14535156 10.40992188 11.29070312 10.62109375 10.41015625 C10.89050781 9.30542969 11.15992188 8.20070313 11.4375 7.0625 C11.70433594 5.96035156 11.97117187 4.85820312 12.24609375 3.72265625 C13 1 13 1 14 0 C15.99958364 -0.04080783 18.00045254 -0.04254356 20 0 C18.63921725 6.64223659 16.83977678 12.96933094 14.625 19.375 C14.33367187 20.26316406 14.04234375 21.15132813 13.7421875 22.06640625 C13.44828125 22.91847656 13.154375 23.77054687 12.8515625 24.6484375 C12.46218506 25.79578369 12.46218506 25.79578369 12.06494141 26.96630859 C10.75122886 29.47507189 9.42335312 30.56072665 7 32 C3.75 32.1875 3.75 32.1875 1 32 C1 30.35 1 28.7 1 27 C2.65 26.34 4.3 25.68 6 25 C5.41160201 19.77881324 4.20372065 15.18750198 2.4375 10.25 C0 3.38739669 0 3.38739669 0 0 Z " fill="#E9EBF2" transform="translate(260,360)"/>
<path d="M0 0 C2.9375 1.1875 2.9375 1.1875 5 3 C5.8125 5.6875 5.8125 5.6875 6 8 C4.02 8 2.04 8 0 8 C-0.33 7.34 -0.66 6.68 -1 6 C-2.65 6 -4.3 6 -6 6 C-6.33 6.66 -6.66 7.32 -7 8 C-5.84371094 8.29003906 -5.84371094 8.29003906 -4.6640625 8.5859375 C-3.66117187 8.84632813 -2.65828125 9.10671875 -1.625 9.375 C-0.62726563 9.63023437 0.37046875 9.88546875 1.3984375 10.1484375 C4 11 4 11 6 13 C6.375 16.4375 6.375 16.4375 6 20 C3.82101966 22.19924992 2.40961489 22.93313639 -0.65625 23.43359375 C-8.34143229 23.44415032 -8.34143229 23.44415032 -11.6875 21.1875 C-13 19 -13 19 -13 16 C-8.18061476 15.76490804 -4.53701494 16.54815522 0 18 C-2.73680396 14.91144381 -5.30519536 14.04977128 -9.16015625 12.84375 C-11 12 -11 12 -13 9 C-12.86138651 5.67327622 -12.58989219 3.70787063 -10.4375 1.125 C-6.95630165 -0.48170693 -3.72796581 -0.5399633 0 0 Z " fill="#E6E8F0" transform="translate(354,360)"/>
<path d="M0 0 C2.9375 1.1875 2.9375 1.1875 5 3 C5.8125 5.6875 5.8125 5.6875 6 8 C4.02 8 2.04 8 0 8 C-0.33 7.34 -0.66 6.68 -1 6 C-2.65 6 -4.3 6 -6 6 C-6.33 6.66 -6.66 7.32 -7 8 C-5.84371094 8.29003906 -5.84371094 8.29003906 -4.6640625 8.5859375 C-3.66117187 8.84632813 -2.65828125 9.10671875 -1.625 9.375 C-0.62726563 9.63023437 0.37046875 9.88546875 1.3984375 10.1484375 C4 11 4 11 6 13 C6.375 16.4375 6.375 16.4375 6 20 C3.82101966 22.19924992 2.40961489 22.93313639 -0.65625 23.43359375 C-8.34143229 23.44415032 -8.34143229 23.44415032 -11.6875 21.1875 C-13 19 -13 19 -13 16 C-8.18061476 15.76490804 -4.53701494 16.54815522 0 18 C-2.73680396 14.91144381 -5.30519536 14.04977128 -9.16015625 12.84375 C-11 12 -11 12 -13 9 C-12.86138651 5.67327622 -12.58989219 3.70787063 -10.4375 1.125 C-6.95630165 -0.48170693 -3.72796581 -0.5399633 0 0 Z " fill="#E6E8F0" transform="translate(304,360)"/>
<path d="M0 0 C3.45536091 0.03851517 4.66420015 0.26245009 7.75 2.0625 C9.70632948 4.26337067 10.54898406 5.39776882 10.75 8.3125 C9.75 9.3125 9.75 9.3125 6.8125 9.5625 C5.801875 9.48 4.79125 9.3975 3.75 9.3125 C3.09 8.3225 2.43 7.3325 1.75 6.3125 C-1.00641416 6.81006092 -1.00641416 6.81006092 -3.25 8.3125 C-3.55523962 12.96338715 -3.55523962 12.96338715 -2.25 17.3125 C-0.27 17.3125 1.71 17.3125 3.75 17.3125 C3.75 16.6525 3.75 15.9925 3.75 15.3125 C5.73 15.3125 7.71 15.3125 9.75 15.3125 C9.44209738 18.16059926 9.09521809 19.89536148 7.25 22.125 C3.44172201 23.93393204 -0.119861 24.12969328 -4.25 23.3125 C-7.25 20.875 -7.25 20.875 -9.25 18.3125 C-9.58 17.9825 -9.91 17.6525 -10.25 17.3125 C-10.89606307 11.81173443 -11.30142248 7.66047754 -7.8125 3.1875 C-6.966875 2.56875 -6.12125 1.95 -5.25 1.3125 C-3.69014791 -0.24735209 -2.16093902 0.06797656 0 0 Z " fill="#E8EAF1" transform="translate(280.25,298.6875)"/>
<path d="M0 0 C1.98 0 3.96 0 6 0 C6 1.98 6 3.96 6 6 C7.65 6 9.3 6 11 6 C11 7.65 11 9.3 11 11 C9.35 11 7.7 11 6 11 C6 14.96 6 18.92 6 23 C7.32 23 8.64 23 10 23 C10 24.98 10 26.96 10 29 C3.60344828 29.36206897 3.60344828 29.36206897 1.28125 27.96875 C-0.69717729 24.92872758 -0.31481877 21.80886916 -0.1875 18.3125 C-0.16719727 17.2596582 -0.16719727 17.2596582 -0.14648438 16.18554688 C-0.11120182 14.45670171 -0.05739583 12.72825235 0 11 C-0.99 11 -1.98 11 -3 11 C-3 9.35 -3 7.7 -3 6 C-2.01 6 -1.02 6 0 6 C0 4.02 0 2.04 0 0 Z " fill="#E9EBF2" transform="translate(215,293)"/>
<path d="M0 0 C1.98 0 3.96 0 6 0 C6 10.23 6 20.46 6 31 C4.02 31 2.04 31 0 31 C0 20.77 0 10.54 0 0 Z " fill="#EEF0F7" transform="translate(242,352)"/>
<path d="M0 0 C1.98 0 3.96 0 6 0 C6 7.59 6 15.18 6 23 C4.02 23 2.04 23 0 23 C0 15.41 0 7.82 0 0 Z " fill="#EBEDF5" transform="translate(323,360)"/>
<path d="M0 0 C2.93453261 0.36681658 3.86437246 0.86437246 6 3 C6.31537716 7.33643601 6.44897847 9.32653229 4 13 C-0.875 12.125 -0.875 12.125 -2 11 C-2.16796875 9.00390625 -2.16796875 9.00390625 -2.1875 6.5625 C-2.20167969 5.75941406 -2.21585938 4.95632813 -2.23046875 4.12890625 C-2 2 -2 2 0 0 Z " fill="#11153A" transform="translate(246,304)"/>
<path d="M0 0 C0.66 0 1.32 0 2 0 C2.50512244 1.60256108 3.00391627 3.20711792 3.5 4.8125 C3.7784375 5.70582031 4.056875 6.59914063 4.34375 7.51953125 C5 10 5 10 5 13 C2.36 13 -0.28 13 -3 13 C-2.01 8.71 -1.02 4.42 0 0 Z " fill="#181C40" transform="translate(152,360)"/>
<path d="M0 0 C0.66 0.33 1.32 0.66 2 1 C0.75120909 4.74637273 -1.15795107 6.29013939 -4 9 C-5.1446875 10.1446875 -5.1446875 10.1446875 -6.3125 11.3125 C-6.869375 11.869375 -7.42625 12.42625 -8 13 C-8 12.01 -8 11.02 -8 10 C-9.98 10.99 -9.98 10.99 -12 12 C-12 10 -12 10 -10.390625 8.37890625 C-9.68421875 7.77949219 -8.9778125 7.18007812 -8.25 6.5625 C-7.20585937 5.66724609 -7.20585937 5.66724609 -6.140625 4.75390625 C-4.13326411 3.10918902 -2.08929688 1.53873892 0 0 Z " fill="#252E52" transform="translate(185,143)"/>
<path d="M0 0 C2.5625 0.1875 2.5625 0.1875 4.5625 2.1875 C4.02678571 5.72321429 4.02678571 5.72321429 2.5625 7.1875 C0.0625 7.3125 0.0625 7.3125 -2.4375 7.1875 C-3.4375 6.1875 -3.4375 6.1875 -3.5625 3.6875 C-3.39599509 0.35740177 -3.31519894 0.2550153 0 0 Z " fill="#E1E3EB" transform="translate(325.4375,350.8125)"/>
<path d="M0 0 C-0.33 1.65 -0.66 3.3 -1 5 C-2.65 5.33 -4.3 5.66 -6 6 C-6.33 4.35 -6.66 2.7 -7 1 C-4.53721199 -0.231394 -2.7204945 -0.07159196 0 0 Z " fill="#24284A" transform="translate(223,373)"/>
<path d="M0 0 C0 1.32 0 2.64 0 4 C-2.31 4 -4.62 4 -7 4 C-7 3.34 -7 2.68 -7 2 C-8.32 1.67 -9.64 1.34 -11 1 C-7.26562152 0.12132271 -3.83225427 -0.08912219 0 0 Z " fill="#2E3353" transform="translate(223,366)"/>
<path d="M0 0 C0.33 0.99 0.66 1.98 1 3 C-3.81938524 3.23509196 -7.46298506 2.45184478 -12 1 C-12 0.67 -12 0.34 -12 0 C-7.66726186 -0.92844389 -4.33273814 -0.92844389 0 0 Z " fill="#1D2245" transform="translate(353,375)"/>
<path d="M0 0 C0.33 0.99 0.66 1.98 1 3 C-3.81938524 3.23509196 -7.46298506 2.45184478 -12 1 C-12 0.67 -12 0.34 -12 0 C-7.66726186 -0.92844389 -4.33273814 -0.92844389 0 0 Z " fill="#1D2245" transform="translate(303,375)"/>
<path d="M0 0 C1.65 0 3.3 0 5 0 C5.66 1.65 6.32 3.3 7 5 C1.25 4.125 1.25 4.125 -1 3 C-0.67 2.01 -0.34 1.02 0 0 Z " fill="#202447" transform="translate(348,365)"/>
<path d="M0 0 C1.65 0 3.3 0 5 0 C5.66 1.65 6.32 3.3 7 5 C1.25 4.125 1.25 4.125 -1 3 C-0.67 2.01 -0.34 1.02 0 0 Z " fill="#202447" transform="translate(298,365)"/>
<path d="M0 0 C0.66 0.33 1.32 0.66 2 1 C1 4 1 4 -1.9375 5.75 C-3.4534375 6.36875 -3.4534375 6.36875 -5 7 C-5.66 6.67 -6.32 6.34 -7 6 C-4.69 4.02 -2.38 2.04 0 0 Z " fill="#B5D1E9" transform="translate(187,145)"/>
<path d="M0 0 C-1.04874998 2.62187494 -1.64931313 3.79371361 -4.125 5.25 C-4.74375 5.4975 -5.3625 5.745 -6 6 C-6.33 5.01 -6.66 4.02 -7 3 C-2.25 0 -2.25 0 0 0 Z " fill="#1D33D9" transform="translate(324,267)"/>
</svg>
